# xmcd
#
# Track frame offsets: 
#        150
#        9935
#        19617
#        31230
#        42622
#        59000
#        78120
#        94015
#        111167
#        132567
#        146327
#        163260
#        180637
#        200225
#
# Disc length: 2891 seconds
#
# Revision: 1
# Processed by: cddbd v1.5.2PL0 Copyright (c) Steve Scherf et al.
# Submitted via: ExactAudioCopy v0.99pb4
#
DISCID=be0b490e
DTITLE=Charlie Mariano  - Boston All Stars
DYEAR=1953
DGENRE=Jazz
TTITLE0=Boston Uncommon (master A)
TTITLE1=Boston Uncommon (master B)
TTITLE2=The Wizard (master A)
TTITLE3=The Wizard (master B)
TTITLE4=Mariners
TTITLE5=Aviary
TTITLE6=Tzoris
TTITLE7=Autumn in New York
TTITLE8=Bye, Bye Blues
TTITLE9=I'm Old Fashioned
TTITLE10=Erosong
TTITLE11=Bess, You Is my Woman Now
TTITLE12=Barsac
TTITLE13=Stella by Starlight
EXTD=
EXTT0=
EXTT1=
EXTT2=
EXTT3=
EXTT4=
EXTT5=
EXTT6=
EXTT7=
EXTT8=
EXTT9=
EXTT10=
EXTT11=
EXTT12=
EXTT13=
PLAYORDER=
